<svg xmlns="http://www.w3.org/2000/svg" xmlns:xlink="http://www.w3.org/1999/xlink" width="113.281" height="60.666" viewBox="0 0 113.281 60.666">
  <defs>
    <clipPath id="clip-path">
      <rect id="Rectangle_285" data-name="Rectangle 285" width="113.281" height="60.666" fill="none"/>
    </clipPath>
  </defs>
  <g id="Group_317" data-name="Group 317" transform="translate(0)">
    <path id="Path_274" data-name="Path 274" d="M23.676,125.6,0,139.362H113.281V125.6Z" transform="translate(0 -78.695)" fill="#001a57"/>
    <path id="Path_275" data-name="Path 275" d="M68.267,141.4h-1.61l.494-2.356H65.075l-.5,2.356h-1.61l1.277-6h1.61l-.477,2.266h2.077l.477-2.266h1.619Z" transform="translate(-39.449 -84.835)" fill="#fff"/>
    <path id="Path_276" data-name="Path 276" d="M81.4,141.4h-1.61l1.277-6h1.61Z" transform="translate(-49.994 -84.835)" fill="#fff"/>
    <g id="Group_318" data-name="Group 318" transform="translate(0)">
      <g id="Group_317-2" data-name="Group 317" clip-path="url(#clip-path)">
        <path id="Path_277" data-name="Path 277" d="M87.979,135.4H91a3.017,3.017,0,0,1,1.295.18,1,1,0,0,1,.548.927,4.606,4.606,0,0,1-.539,2c-.216.305-.441.422-1.079.566l-.009.063c.584.027.881.3.881.791a1.583,1.583,0,0,1-.045.378l-.234,1.1H90.182l.171-.8a2.477,2.477,0,0,0,.036-.342c0-.315-.162-.45-.539-.45h-1.2l-.342,1.591H86.7Zm2.239,3.048c.4,0,.593-.117.7-.441a4.649,4.649,0,0,0,.18-.845c0-.306-.126-.387-.6-.387h-1.2l-.351,1.673Z" transform="translate(-54.324 -84.835)" fill="#fff"/>
        <path id="Path_278" data-name="Path 278" d="M105.113,137.8h2.554l-.234,1.106h-2.554l-.243,1.169h2.778l-.279,1.322h-4.4l1.276-6h4.334l-.279,1.322h-2.725Z" transform="translate(-64.372 -84.835)" fill="#fff"/>
        <path id="Path_279" data-name="Path 279" d="M126.991,137.194a1.271,1.271,0,0,0,.054-.342c0-.27-.18-.351-.764-.351-.567,0-.8.054-.935.225a.946.946,0,0,0-.18.567c0,.261.081.305.711.342a6.336,6.336,0,0,1,1.807.224.861.861,0,0,1,.638.882,5.028,5.028,0,0,1-.207,1.124,1.669,1.669,0,0,1-1.079,1.295,4.5,4.5,0,0,1-1.69.207c-1.232,0-1.717-.081-2.077-.342a.935.935,0,0,1-.305-.728,3.914,3.914,0,0,1,.126-.917h1.529a1.359,1.359,0,0,0-.054.36.326.326,0,0,0,.144.288c.153.081.18.081.881.081.494,0,.549-.009.692-.081a.791.791,0,0,0,.369-.719c0-.252-.126-.324-.665-.36a11.976,11.976,0,0,1-1.745-.18.878.878,0,0,1-.746-.944,3.337,3.337,0,0,1,.639-1.97c.413-.432,1.025-.575,2.392-.575,1.088,0,1.511.081,1.825.333a.992.992,0,0,1,.3.755,3.372,3.372,0,0,1-.126.828Z" transform="translate(-77.043 -84.76)" fill="#fff"/>
        <path id="Path_280" data-name="Path 280" d="M143.832,135.486a1.287,1.287,0,0,1,.764,1.295,14.582,14.582,0,0,1-.6,2.922,2.227,2.227,0,0,1-1.259,1.385,4.655,4.655,0,0,1-1.924.279c-1.061,0-1.529-.117-1.9-.459a1.362,1.362,0,0,1-.4-1.052,14.35,14.35,0,0,1,.63-2.958,2.238,2.238,0,0,1,1.268-1.349,4.479,4.479,0,0,1,1.906-.27,3.452,3.452,0,0,1,1.511.207m-2.995,1.5c-.153.2-.18.279-.4,1.241a6.923,6.923,0,0,0-.207,1.241c0,.413.2.521,1,.521.854,0,1.07-.162,1.3-.98a10.824,10.824,0,0,0,.351-1.816c0-.432-.189-.54-.962-.54-.657,0-.881.072-1.088.333" transform="translate(-86.788 -84.76)" fill="#fff"/>
        <path id="Path_281" data-name="Path 281" d="M156.435,140.021h2.518l-.3,1.376h-4.127l1.276-6h1.61Z" transform="translate(-96.821 -84.835)" fill="#fff"/>
        <path id="Path_282" data-name="Path 282" d="M173.419,135.4l-.8,3.786c-.018.081-.035.134-.161.6a1.991,1.991,0,0,1-.927,1.322,3.5,3.5,0,0,1-1.915.333,4.182,4.182,0,0,1-1.78-.225.976.976,0,0,1-.593-.971,5.616,5.616,0,0,1,.135-.935l.827-3.912h1.619l-.836,3.912a2.051,2.051,0,0,0-.045.36c0,.305.224.4.962.4.773,0,.944-.126,1.1-.836l.809-3.831Z" transform="translate(-104.786 -84.835)" fill="#fff"/>
        <path id="Path_283" data-name="Path 283" d="M186.052,141.4h-1.61l.98-4.622H183.9l.3-1.376h4.748l-.3,1.376h-1.619Z" transform="translate(-115.225 -84.835)" fill="#fff"/>
        <path id="Path_284" data-name="Path 284" d="M196.516,141.4h-1.61l1.277-6h1.61Z" transform="translate(-122.119 -84.835)" fill="#fff"/>
        <path id="Path_285" data-name="Path 285" d="M207.66,135.486a1.287,1.287,0,0,1,.764,1.295,14.582,14.582,0,0,1-.6,2.922,2.227,2.227,0,0,1-1.259,1.385,4.655,4.655,0,0,1-1.924.279c-1.061,0-1.529-.117-1.9-.459a1.362,1.362,0,0,1-.4-1.052,14.35,14.35,0,0,1,.63-2.958,2.238,2.238,0,0,1,1.268-1.349,4.48,4.48,0,0,1,1.906-.27,3.452,3.452,0,0,1,1.511.207m-2.995,1.5c-.153.2-.18.279-.4,1.241a6.948,6.948,0,0,0-.207,1.241c0,.413.2.521,1,.521.854,0,1.07-.162,1.3-.98a10.821,10.821,0,0,0,.351-1.816c0-.432-.189-.54-.962-.54-.657,0-.881.072-1.088.333" transform="translate(-126.781 -84.76)" fill="#fff"/>
        <path id="Path_286" data-name="Path 286" d="M224.347,141.4h-2.725l-.4-2.527c-.117-.683-.215-1.385-.305-2.1h-.072l-.09.557c-.135.819-.162.962-.315,1.664l-.5,2.4h-1.573l1.277-6h2.706l.414,2.527.162,1.016c.054.342.1.674.144,1.016h.063l.09-.539c.135-.828.153-.89.305-1.619l.5-2.4h1.6Z" transform="translate(-136.813 -84.835)" fill="#fff"/>
        <path id="Path_287" data-name="Path 287" d="M241.262,137.194a1.271,1.271,0,0,0,.054-.342c0-.27-.18-.351-.764-.351-.567,0-.8.054-.935.225a.946.946,0,0,0-.18.567c0,.261.081.305.711.342a6.336,6.336,0,0,1,1.807.224.861.861,0,0,1,.638.882,5.027,5.027,0,0,1-.207,1.124,1.669,1.669,0,0,1-1.079,1.295,4.5,4.5,0,0,1-1.69.207c-1.232,0-1.717-.081-2.077-.342a.934.934,0,0,1-.306-.728,3.914,3.914,0,0,1,.126-.917h1.529a1.359,1.359,0,0,0-.054.36.327.327,0,0,0,.144.288c.153.081.18.081.881.081.494,0,.549-.009.692-.081a.791.791,0,0,0,.369-.719c0-.252-.126-.324-.665-.36a11.975,11.975,0,0,1-1.745-.18.878.878,0,0,1-.746-.944,3.339,3.339,0,0,1,.638-1.97c.414-.432,1.025-.575,2.392-.575,1.088,0,1.511.081,1.825.333a.992.992,0,0,1,.3.755,3.372,3.372,0,0,1-.126.828Z" transform="translate(-148.64 -84.76)" fill="#fff"/>
        <path id="Path_288" data-name="Path 288" d="M20.814,15.84l2.5-6.972h-3.81c-2.343,6.7-4.714,13.4-7.027,20.1a1.133,1.133,0,0,0,.92,1.278,13.879,13.879,0,0,0,2.146-.034,1.079,1.079,0,0,0,.67-.645l.519-1.46h-1.8l3.137-8.885c.383,0,.392,0,.4,0h16.09c2.023-5.758,3.948-11.483,6.062-17.275A3.659,3.659,0,0,1,43.3.058q9.189-.118,18.4,0a3.881,3.881,0,0,1,2.749,1.825c1.253,1.863.049,3.916-.555,5.84h.006l-4.068,11.5h4.05q3.359-9.6,6.72-19.2h11c3.442.016,6.873-.056,10.327.048a3.98,3.98,0,0,1,2.543,1.578,3.773,3.773,0,0,1,.527,3.478l-7.169,20.54a3.787,3.787,0,0,1-2.344,2.274,3.733,3.733,0,0,1-1.12.171H71.616L67.7,39.134H56.9L60.765,28.1H56.681l-3.9,11.031H41.9L45.819,28.1h-4L37.967,39.134H27.625L31.469,28.1H27.546c-1.072,3.033-2.05,6.034-3.215,9.1a3.665,3.665,0,0,1-2.67,1.886c-5.932.074-12.426.082-18.375-.006A3.979,3.979,0,0,1,.742,37.507a3.774,3.774,0,0,1-.527-3.478L11.206,2.46A3.789,3.789,0,0,1,13.55.187,3.7,3.7,0,0,1,14.67.015c5.748.016,12.047-.056,17.807.048a3.981,3.981,0,0,1,2.544,1.578,3.772,3.772,0,0,1,.527,3.478L31.8,15.84Zm58.048,3.378L82.537,8.869h-4.1L74.818,19.218ZM52.532,8.869H48.549L44.93,19.218h4Z" transform="translate(-0.004 0)" fill="#d60812"/>
        <path id="Path_289" data-name="Path 289" d="M194.518,87.889a1.774,1.774,0,0,1,.845-1.082,3.59,3.59,0,0,1,1.607-.3,4.789,4.789,0,0,1,.831.06,1.2,1.2,0,0,1,.536.222.65.65,0,0,1,.231.481,2.118,2.118,0,0,1-.142.819l-.221.657h-1.48l.237-.7q.078-.231,0-.31a.566.566,0,0,0-.371-.078.577.577,0,0,0-.349.088.666.666,0,0,0-.2.328l-1.309,3.885q-.084.249.332.249a1.071,1.071,0,0,0,.4-.055.279.279,0,0,0,.167-.167l.355-1.055h-.472l.423-1.258h1.952l-.726,2.156a3.267,3.267,0,0,1-.367.786,1.452,1.452,0,0,1-.487.458,1.965,1.965,0,0,1-.676.222,6.574,6.574,0,0,1-.973.06,2.41,2.41,0,0,1-1.408-.3q-.382-.3-.117-1.082Z" transform="translate(-120.945 -54.204)" fill="#001a57"/>
        <path id="Path_290" data-name="Path 290" d="M208.025,86.71h1.9a5.442,5.442,0,0,1,1.011.074,1.025,1.025,0,0,1,.548.254.663.663,0,0,1,.174.485,2.609,2.609,0,0,1-.163.786l-.271.8a2.127,2.127,0,0,1-.583.99,1.924,1.924,0,0,1-.92.37l-.006.018a1.361,1.361,0,0,1,.71.324q.161.194-.032.768l-.614,1.822H208.24l.645-1.915q.071-.212-.045-.305a.884.884,0,0,0-.5-.093h-.259l-.779,2.313H205.77Zm.445,3.237h.3a.963.963,0,0,0,.558-.12.946.946,0,0,0,.276-.463l.339-1.008q.169-.5-.3-.5h-.463Z" transform="translate(-128.926 -54.329)" fill="#001a57"/>
        <path id="Path_291" data-name="Path 291" d="M221.715,87.889a1.772,1.772,0,0,1,.845-1.082,3.59,3.59,0,0,1,1.607-.3,2.415,2.415,0,0,1,1.408.3q.381.3.116,1.082l-1.377,4.088a1.774,1.774,0,0,1-.845,1.082,3.588,3.588,0,0,1-1.608.3,2.408,2.408,0,0,1-1.408-.3q-.381-.3-.117-1.082Zm2.358.083q.062-.185,0-.25a.439.439,0,0,0-.288-.065.671.671,0,0,0-.332.065.437.437,0,0,0-.172.25l-1.321,3.922q-.062.185,0,.25a.436.436,0,0,0,.288.065.667.667,0,0,0,.332-.065.436.436,0,0,0,.172-.25Z" transform="translate(-137.986 -54.204)" fill="#001a57"/>
        <path id="Path_292" data-name="Path 292" d="M237.887,91.806a3.331,3.331,0,0,1-.427.884,1.709,1.709,0,0,1-.54.5,2.023,2.023,0,0,1-.659.226,5.5,5.5,0,0,1-.881.06,4.757,4.757,0,0,1-.84-.06,1.023,1.023,0,0,1-.506-.226.692.692,0,0,1-.2-.5,2.534,2.534,0,0,1,.168-.884l1.716-5.1h1.536l-1.732,5.143a.419.419,0,0,0-.013.315c.037.074.129.111.277.111a.526.526,0,0,0,.352-.111.7.7,0,0,0,.2-.315l1.732-5.143H239.6Z" transform="translate(-146.509 -54.329)" fill="#001a57"/>
        <path id="Path_293" data-name="Path 293" d="M248.6,86.71h2.211a1.447,1.447,0,0,1,1.166.37q.3.37,0,1.258l-.392,1.166a5.329,5.329,0,0,1-.43.99,2.014,2.014,0,0,1-.519.606,1.827,1.827,0,0,1-.673.31,3.963,3.963,0,0,1-.919.092h-.518l-.642,1.906h-1.536Zm.78,3.589a.422.422,0,0,0,.3-.111.915.915,0,0,0,.211-.379l.542-1.61q.056-.166,0-.226c-.036-.04-.122-.06-.257-.06h-.444l-.8,2.386Z" transform="translate(-154.346 -54.329)" fill="#001a57"/>
      </g>
    </g>
  </g>
</svg>
